# xmcd
#
# Track frame offsets:
#	150
#	10293
#	22307
#	39363
#	50802
#	61233
#	73249
#	86472
#	101915
#	115960
#	123915
#	131636
#	143515
#	157238
#	171435
#	181287
#	193902
#	203683
#	213960
#	230029
#	245363
#	256928
#
# Disc length: 3647 seconds
#
# Revision: 1
# Processed by: cddbd v1.4PL0 Copyright (c) Steve Scherf et al.
# Submitted via: CDmax 1.9
#
DISCID=4b0e3d16
DTITLE=Tennessee - Rockin' Country
DYEAR=1999
DGENRE=Country
TTITLE0=Cottonfields
TTITLE1=Oh, Lonesome Me
TTITLE2=Achy Breaky Heart
TTITLE3=Hand Me Down My Walking Cane
TTITLE4=Summertime Blues
TTITLE5=Bottle Of Wine
TTITLE6=Me And You And A Dog Named Boo
TTITLE7=Death Of A Clown
TTITLE8=It's All Over Now
TTITLE9=Da Doo Ron Ron
TTITLE10=Sheila
TTITLE11=Ginny Come Lately
TTITLE12=C'on Everybody
TTITLE13=Darling
TTITLE14=Dandy
TTITLE15=Ruby Don't Take Your Love To Town
TTITLE16=Hello Mary Lou
TTITLE17=Bye Bye Love
TTITLE18=One Way Wind
TTITLE19=Proud Mary
TTITLE20=Bad Moon Rising
TTITLE21=Take Me Home Country Roads
EXTD=
EXTT0=
EXTT1=
EXTT2=
EXTT3=
EXTT4=
EXTT5=
EXTT6=
EXTT7=
EXTT8=
EXTT9=
EXTT10=
EXTT11=
EXTT12=
EXTT13=
EXTT14=
EXTT15=
EXTT16=
EXTT17=
EXTT18=
EXTT19=
EXTT20=
EXTT21=
PLAYORDER=
